<svg width="24" height="24" viewBox="0 0 24 24" fill="none" xmlns="http://www.w3.org/2000/svg">
    <g clip-path="url(#8u00rnrnoa)">
        <path d="m19.77 7.23.015-.015L16.06 3.5 15 4.56l2.11 2.11A2.497 2.497 0 1 0 19 11.29v7.21c0 .55-.45 1-1 1s-1-.45-1-1V14a2 2 0 0 0-2-2h-1V5a2 2 0 0 0-2-2H6a2 2 0 0 0-2 2v16h10v-7.5h1.5v5a2.5 2.5 0 0 0 5 0V9c0-.69-.28-1.315-.73-1.77zM12 10H6V5h6v5zm6 0c-.55 0-1-.45-1-1s.45-1 1-1 1 .45 1 1-.45 1-1 1z" fill="#fff"/>
    </g>
    <defs>
        <clipPath id="8u00rnrnoa">
            <path fill="#fff" d="M0 0h24v24H0z"/>
        </clipPath>
    </defs>
</svg>
