<svg width="24" height="24" viewBox="0 0 24 24" fill="none" xmlns="http://www.w3.org/2000/svg">
    <g clip-path="url(#aljd8k977a)">
        <path d="M12 2C6.475 2 2 6.475 2 12s4.475 10 10 10 10-4.475 10-10S17.525 2 12 2zm1.415 16.09V20H10.75v-1.93c-1.705-.365-3.165-1.46-3.27-3.405h1.955c.1 1.05.82 1.865 2.65 1.865 1.965 0 2.4-.98 2.4-1.59 0-.825-.445-1.61-2.665-2.14-2.48-.595-4.18-1.62-4.18-3.67 0-1.715 1.385-2.835 3.11-3.21V4h2.665v1.945c1.86.455 2.79 1.86 2.855 3.385H14.3c-.055-1.11-.64-1.865-2.22-1.865-1.5 0-2.4.675-2.4 1.645 0 .845.65 1.385 2.665 1.91 2.02.525 4.18 1.385 4.18 3.91 0 1.825-1.38 2.83-3.11 3.16z" fill="#fff"/>
    </g>
    <defs>
        <clipPath id="aljd8k977a">
            <path fill="#fff" d="M0 0h24v24H0z"/>
        </clipPath>
    </defs>
</svg>
