<svg width="180" height="36" viewBox="0 0 180 36" fill="none" xmlns="http://www.w3.org/2000/svg">
    <path d="M104.436 29.42c-6 0-10.83-4.59-10.83-10.86v-.06c0-6.12 4.68-10.92 11.04-10.92 4.29 0 7.05 1.8 8.91 4.35l-4.38 3.39c-1.2-1.47-2.58-2.46-4.59-2.46-2.94 0-5.01 2.52-5.01 5.58v.06c0 3.15 2.07 5.61 5.01 5.61 2.19 0 3.48-1.02 4.74-2.55l4.38 3.12c-1.98 2.73-4.65 4.74-9.27 4.74zm20.053-.06c-3.72 0-7.23-1.17-9.84-3.48l3.24-3.87c2.1 1.65 4.38 2.52 6.81 2.52 1.59 0 2.43-.54 2.43-1.44v-.06c0-.9-.69-1.35-3.57-2.04-4.47-1.02-7.92-2.28-7.92-6.57v-.06c0-3.9 3.09-6.72 8.13-6.72 3.57 0 6.36.96 8.64 2.79l-2.91 4.11c-1.92-1.38-4.02-2.07-5.88-2.07-1.41 0-2.1.57-2.1 1.35v.06c0 .96.72 1.38 3.66 2.04 4.8 1.05 7.8 2.61 7.8 6.54v.06c0 4.29-3.39 6.84-8.49 6.84zm11.32-.36V8h6.15l5.01 8.13 5.01-8.13h6.15v21h-5.79V16.94l-5.37 8.22h-.12l-5.34-8.19V29h-5.7zm34.295.36c-3.72 0-7.23-1.17-9.84-3.48l3.24-3.87c2.1 1.65 4.38 2.52 6.81 2.52 1.59 0 2.43-.54 2.43-1.44v-.06c0-.9-.69-1.35-3.57-2.04-4.47-1.02-7.92-2.28-7.92-6.57v-.06c0-3.9 3.09-6.72 8.13-6.72 3.57 0 6.36.96 8.64 2.79l-2.91 4.11c-1.92-1.38-4.02-2.07-5.88-2.07-1.41 0-2.1.57-2.1 1.35v.06c0 .96.72 1.38 3.66 2.04 4.8 1.05 7.8 2.61 7.8 6.54v.06c0 4.29-3.39 6.84-8.49 6.84zM.92 6.648h19.832v5.644H8.278V15.6h12.474v5.457H8.278v3.442h12.474v5.677H.921V6.648zM30.492 6.648h-7.683l9.55 23.627h.063l3.81-9.426-5.74-14.2z" fill="#fff"/>
    <path d="m41.972 6.648-5.74 14.2-3.81 9.427h7.682l9.55-23.627h-7.682z" fill="#00ADFF"/>
    <path d="m91.079 30.826-5.467-5.868a12.272 12.272 0 0 0 1.882-6.545C87.494 11.557 81.888 6 74.974 6c-6.916 0-12.522 5.557-12.522 12.413s5.606 12.413 12.521 12.413c2.406 0 4.652-.674 6.56-1.84l1.714 1.84h7.832zm-16.106-5.951c-3.287 0-5.95-2.893-5.95-6.462s2.663-6.462 5.95-6.462c3.287 0 5.951 2.893 5.951 6.462 0 .891-.166 1.74-.467 2.513h-6.434l3.223 3.459c-.7.314-1.468.49-2.273.49z" fill="#fff"/>
    <path d="M59.672 6.648H51.99v23.528h7.683V6.648z" fill="#00ADFF"/>
</svg>
